<svg width="519" height="255" viewBox="0 0 519 255" fill="none" xmlns="http://www.w3.org/2000/svg">
<path d="M0.391113 200H51.9811C69.0751 200 75.0811 194.379 75.0811 180.596V163.656C75.0811 149.873 69.0751 144.252 51.9811 144.252H0.391113V200ZM17.4851 158.112H47.8231C55.1381 158.112 57.9871 160.191 57.9871 168.122V175.668C57.9871 183.599 55.1381 185.678 47.8231 185.678H17.4851V158.112Z" fill="#BD0000"/>
<path d="M100.823 200H162.808V186.602H117.917V177.67H159.497V166.12H117.917V157.188H161.807V144.252H100.823V200Z" fill="#BD0000"/>
<path d="M205.654 158.112H232.373C237.763 158.112 240.227 159.036 240.227 163.964V165.812C240.227 169.816 238.533 171.664 233.913 171.664H205.654V158.112ZM188.56 200H205.654V185.524H232.527C237.84 185.524 239.534 187.449 239.534 193.301V200H256.628V190.529C256.628 181.366 252.393 179.133 247.311 178.209V178.055C255.165 176.207 256.859 171.818 256.859 164.349V160.807C256.859 150.797 253.317 144.252 240.15 144.252H188.56V200Z" fill="#BD0000"/>
<path d="M283.818 200H339.335V185.678H300.912V0H283.818V200Z" fill="#BD0000"/>
<path d="M362.006 200H423.991V186.602H379.1V177.67H420.68V166.12H379.1V157.188H422.99V144.252H362.006V200Z" fill="#BD0000"/>
<path d="M466.838 158.112H493.557C498.947 158.112 501.411 159.036 501.411 163.964V165.812C501.411 169.816 499.717 171.664 495.097 171.664H466.838V158.112ZM449.744 200H466.838V185.524H493.711C499.024 185.524 500.718 187.449 500.718 193.301V200H517.812V190.529C517.812 181.366 513.577 179.133 508.495 178.209V178.055C516.349 176.207 518.043 171.818 518.043 164.349V160.807C518.043 150.797 514.501 144.252 501.334 144.252H449.744V200Z" fill="#BD0000"/>
<path fill-rule="evenodd" clip-rule="evenodd" d="M256.044 30.1131L274 38.8559V19.9898L255.537 11L255.16 11.7927L255.135 11.7403L0 133.916L0.00546776 133.927H39.2519L256.044 30.1131ZM508 133.927H469.254L311 56.8717V38.0055L508 133.927Z" fill="#37367D"/>
<path d="M0.531738 254H3.43674V240.139H17.9202V254H20.8252V223.954H17.8787V236.985H3.43674V223.954H0.531738V254Z" fill="#37367D"/>
<path d="M42.1284 254H44.5354V238.52C44.5354 234.412 43.2074 232.503 37.3144 232.503C30.7159 232.503 30.0934 234.993 30.0934 237.566V238.686H32.7494C32.7494 235.989 32.8324 234.91 37.1899 234.91C41.5889 234.91 41.8794 235.989 41.8794 239.101V242.961H41.7964C40.8419 241.508 39.9704 241.052 35.9449 241.052C30.3009 241.052 29.3464 243.542 29.3464 247.692C29.3464 251.759 30.5499 254.332 35.9449 254.332C39.0574 254.332 40.5929 253.834 42.1284 252.174V254ZM32.0024 247.567C32.0024 244.33 33.5379 243.459 37.0654 243.459C40.5929 243.459 42.1284 244.33 42.1284 247.567C42.1284 250.804 40.5929 251.676 37.0654 251.676C33.5379 251.676 32.0024 250.804 32.0024 247.567Z" fill="#37367D"/>
<path d="M67.8953 232.835H65.2393V246.198C65.2393 250.68 62.9983 251.925 59.7613 251.925C56.2753 251.925 55.7358 249.601 55.7358 247.152V232.835H53.0798V247.775C53.0798 251.883 54.4078 254.332 59.3048 254.332C62.3758 254.332 63.8283 253.543 65.1563 251.261H65.2393V254H67.8953V232.835Z" fill="#37367D"/>
<path d="M76.3983 247.443C76.3983 253.751 78.6393 254.332 83.4948 254.332C90.3423 254.332 91.2968 252.547 91.2968 247.567C91.2968 242.919 90.3423 242.421 84.0758 242.048C79.5938 241.799 79.2203 241.55 79.2203 238.562C79.2203 235.283 79.8843 234.91 83.5778 234.91C87.5618 234.91 88.4333 235.117 88.4333 238.354H91.0893C91.0893 233.914 89.8858 232.503 83.7023 232.503C77.3943 232.503 76.5643 234.246 76.5643 238.686C76.5643 243.376 78.0168 244.164 83.3288 244.455C88.3503 244.745 88.6408 244.953 88.6408 247.733C88.6408 251.302 87.8523 251.925 83.5778 251.925C79.6353 251.925 78.9713 251.095 79.0543 247.443H76.3983Z" fill="#37367D"/>
<path d="M99.1772 244.206H108.307V241.799H99.1772V244.206Z" fill="#37367D"/>
<path d="M139.968 254H144.201L152.044 223.954H149.222L142.167 251.095H142.084L135.444 223.954H131.045L124.405 251.095H124.322L117.267 223.954H114.445L122.289 254H126.522L133.203 226.859H133.286L139.968 254Z" fill="#37367D"/>
<path d="M160.601 243.417C160.601 235.532 161.265 234.91 165.498 234.91C169.731 234.91 170.395 235.532 170.395 243.417C170.395 251.302 169.731 251.925 165.498 251.925C161.265 251.925 160.601 251.302 160.601 243.417ZM157.696 243.417C157.696 252.174 158.609 254.332 165.498 254.332C172.387 254.332 173.3 252.174 173.3 243.417C173.3 234.993 172.47 232.503 165.498 232.503C158.526 232.503 157.696 234.993 157.696 243.417Z" fill="#37367D"/>
<path d="M181.47 254H184.126V240.637C184.126 236.155 186.367 234.91 189.604 234.91C193.09 234.91 193.63 237.234 193.63 239.682V254H196.286V239.06C196.286 234.951 194.958 232.503 190.061 232.503C186.99 232.503 185.537 233.291 184.209 235.574H184.126V223.954H181.47V254Z" fill="#37367D"/>
<path d="M204.83 254H207.486V240.637C207.486 236.155 209.727 234.91 212.964 234.91C216.45 234.91 216.99 237.234 216.99 239.682V254H219.646V239.06C219.646 234.951 218.318 232.503 213.421 232.503C210.35 232.503 208.897 233.291 207.569 235.574H207.486V232.835H204.83V254Z" fill="#37367D"/>
<path d="M227.568 244.206H236.698V241.799H227.568V244.206Z" fill="#37367D"/>
<path d="M244.247 246.903C244.247 252.962 246.695 254.332 253.584 254.332C260.349 254.332 262.839 252.962 262.839 245.866C262.839 238.562 261.22 237.732 253.792 237.234C248.231 236.86 247.484 236.113 247.484 231.839C247.484 227.398 247.94 226.527 253.626 226.527C258.606 226.527 259.975 227.481 259.975 231.424V232.088H262.631C262.465 225.116 260.93 223.622 253.626 223.622C246.82 223.622 244.579 224.535 244.579 231.839C244.579 237.566 245.782 239.35 250.887 239.765L253.958 240.014C259.934 240.512 259.934 241.633 259.934 245.451C259.934 251.136 259.187 251.427 253.543 251.427C247.899 251.427 246.903 250.804 246.903 246.322V244.579H244.247V246.903Z" fill="#37367D"/>
<path d="M273.551 241.384C273.551 236.902 273.634 234.91 278.365 234.91C283.096 234.91 283.179 236.902 283.179 241.384H273.551ZM285.835 244.04V240.844C285.835 235.076 284.798 232.503 278.448 232.503C272.057 232.503 270.646 234.661 270.646 243.417C270.646 252.008 271.476 254.332 278.448 254.332C284.798 254.332 285.835 252.713 285.835 248.48V247.692H283.179C283.179 251.842 282.266 251.925 277.992 251.925C274.34 251.925 273.551 250.597 273.551 245.99V244.04H285.835Z" fill="#37367D"/>
<path d="M294.38 254H297.036V239.267C297.036 236.362 298.405 234.868 301.061 234.91C304.091 234.91 304.547 235.989 304.506 239.89H306.913V238.188C306.913 233.955 305.377 232.503 302.016 232.503C299.36 232.503 298.115 233.374 297.119 235.408H297.036V232.835H294.38V254Z" fill="#37367D"/>
<path d="M317.915 254H321.65L327.585 232.835H324.845L319.824 251.344H319.741L314.72 232.835H311.98L317.915 254Z" fill="#37367D"/>
<path d="M334.915 254H337.571V232.835H334.915V254ZM334.915 227.481H337.571V223.954H334.915V227.481Z" fill="#37367D"/>
<path d="M361.189 239.89C361.189 234.287 359.986 232.503 354.259 232.503C347.868 232.503 346.457 234.661 346.457 243.417C346.457 252.008 347.287 254.332 354.259 254.332C358.99 254.332 361.563 253.17 361.563 247.692V246.322H358.907C358.907 250.887 358.077 251.925 354.259 251.925C350.026 251.925 349.362 251.302 349.362 243.417C349.362 235.532 350.026 234.91 354.259 234.91C357.786 234.91 358.533 236.03 358.533 239.89H361.189Z" fill="#37367D"/>
<path d="M371.952 241.384C371.952 236.902 372.035 234.91 376.766 234.91C381.497 234.91 381.58 236.902 381.58 241.384H371.952ZM384.236 244.04V240.844C384.236 235.076 383.198 232.503 376.849 232.503C370.458 232.503 369.047 234.661 369.047 243.417C369.047 252.008 369.877 254.332 376.849 254.332C383.198 254.332 384.236 252.713 384.236 248.48V247.692H381.58C381.58 251.842 380.667 251.925 376.392 251.925C372.74 251.925 371.952 250.597 371.952 245.99V244.04H384.236Z" fill="#37367D"/>
<path d="M418.274 242.131H426.076V245.119C426.076 251.385 424.748 251.427 418.98 251.427C412.174 251.427 411.302 250.514 411.302 243.874V234.08C411.302 227.44 412.174 226.527 418.98 226.527C425.08 226.527 426.076 227.149 426.076 231.756V232.835H428.981V229.805C428.981 224.12 424.873 223.622 418.98 223.622C411.095 223.622 408.397 225.116 408.397 233.914V244.04C408.397 252.838 411.095 254.332 418.98 254.332C425.454 254.332 428.981 254 428.981 245.949V239.226H418.274V242.131Z" fill="#37367D"/>
<path d="M437.23 254H439.886V241.882C439.886 237.483 441.38 235.159 445.24 235.159C448.145 235.159 449.431 236.196 449.431 239.35V254H452.087V240.678C452.087 236.528 453.789 235.159 457.192 235.159C459.889 235.159 461.632 236.072 461.632 240.305V254H464.288V238.769C464.288 234.578 462.255 232.503 457.98 232.503C454.992 232.503 453.249 233.374 451.631 235.947C450.552 233.125 448.394 232.503 445.572 232.503C442.584 232.503 441.297 233.706 439.969 235.989H439.886V232.835H437.23V254Z" fill="#37367D"/>
<path d="M485.861 243.417C485.861 250.721 484.948 251.676 480.798 251.676C476.357 251.676 475.735 250.099 475.735 242.172C475.735 236.985 476.98 235.159 480.798 235.159C484.948 235.159 485.861 236.113 485.861 243.417ZM473.079 254H475.735V251.344H475.818C476.814 253.46 478.266 254.332 481.254 254.332C487.147 254.332 488.766 251.717 488.766 243.417C488.766 235.117 487.147 232.503 481.669 232.503C479.262 232.503 477.27 233.001 475.818 235.491H475.735V223.954H473.079V254Z" fill="#37367D"/>
<path d="M497.292 254H500.197V240.139H514.68V254H517.585V223.954H514.639V236.985H500.197V223.954H497.292V254Z" fill="#37367D"/>
</svg>
