<svg width="519" height="264" viewBox="0 0 519 264" fill="none" xmlns="http://www.w3.org/2000/svg">
<g clip-path="url(#clip0)">
<path d="M0.391113 200H51.9811C69.0751 200 75.0811 194.379 75.0811 180.596V163.656C75.0811 149.873 69.0751 144.252 51.9811 144.252H0.391113V200ZM17.4851 158.112H47.8231C55.1381 158.112 57.9871 160.191 57.9871 168.122V175.668C57.9871 183.599 55.1381 185.678 47.8231 185.678H17.4851V158.112Z" fill="white"/>
<path d="M100.823 200H162.808V186.602H117.917V177.67H159.497V166.12H117.917V157.188H161.807V144.252H100.823V200Z" fill="white"/>
<path d="M205.654 158.112H232.373C237.763 158.112 240.227 159.036 240.227 163.964V165.812C240.227 169.816 238.533 171.664 233.913 171.664H205.654V158.112ZM188.56 200H205.654V185.524H232.527C237.84 185.524 239.534 187.449 239.534 193.301V200H256.628V190.529C256.628 181.366 252.393 179.133 247.311 178.209V178.055C255.165 176.207 256.859 171.818 256.859 164.349V160.807C256.859 150.797 253.317 144.252 240.15 144.252H188.56V200Z" fill="white"/>
<path d="M283.818 200H339.335V185.678H300.912V0H283.818V200Z" fill="white"/>
<path d="M362.006 200H423.991V186.602H379.1V177.67H420.68V166.12H379.1V157.188H422.99V144.252H362.006V200Z" fill="white"/>
<path d="M466.838 158.112H493.557C498.947 158.112 501.411 159.036 501.411 163.964V165.812C501.411 169.816 499.717 171.664 495.097 171.664H466.838V158.112ZM449.744 200H466.838V185.524H493.711C499.024 185.524 500.718 187.449 500.718 193.301V200H517.812V190.529C517.812 181.366 513.577 179.133 508.495 178.209V178.055C516.349 176.207 518.043 171.818 518.043 164.349V160.807C518.043 150.797 514.501 144.252 501.334 144.252H449.744V200Z" fill="white"/>
<path d="M33.125 264H38.531L48.548 225.628H44.944L35.934 260.29H35.828L27.348 225.628H21.73L13.25 260.29H13.144L4.134 225.628H0.53L10.547 264H15.953L24.486 229.338H24.592L33.125 264ZM59.4768 250.485C59.4768 240.415 60.3248 239.62 65.7308 239.62C71.1368 239.62 71.9848 240.415 71.9848 250.485C71.9848 260.555 71.1368 261.35 65.7308 261.35C60.3248 261.35 59.4768 260.555 59.4768 250.485ZM55.7668 250.485C55.7668 261.668 56.9328 264.424 65.7308 264.424C74.5288 264.424 75.6948 261.668 75.6948 250.485C75.6948 239.726 74.6348 236.546 65.7308 236.546C56.8268 236.546 55.7668 239.726 55.7668 250.485ZM86.1287 264H89.5207V246.934C89.5207 241.21 92.3827 239.62 96.5167 239.62C100.969 239.62 101.658 242.588 101.658 245.715V264H105.05V244.92C105.05 239.673 103.354 236.546 97.0997 236.546C93.1777 236.546 91.3227 237.553 89.6267 240.468H89.5207V225.628H86.1287V264ZM115.962 264H119.354V246.934C119.354 241.21 122.216 239.62 126.35 239.62C130.802 239.62 131.491 242.588 131.491 245.715V264H134.883V244.92C134.883 239.673 133.187 236.546 126.933 236.546C123.011 236.546 121.156 237.553 119.46 240.468H119.354V236.97H115.962V264ZM145 251.492H156.66V248.418H145V251.492ZM166.301 254.937C166.301 262.675 169.428 264.424 178.226 264.424C186.865 264.424 190.045 262.675 190.045 253.612C190.045 244.284 187.978 243.224 178.491 242.588C171.389 242.111 170.435 241.157 170.435 235.698C170.435 230.027 171.018 228.914 178.279 228.914C184.639 228.914 186.388 230.133 186.388 235.168V236.016H189.78C189.568 227.112 187.607 225.204 178.279 225.204C169.587 225.204 166.725 226.37 166.725 235.698C166.725 243.012 168.262 245.291 174.781 245.821L178.703 246.139C186.335 246.775 186.335 248.206 186.335 253.082C186.335 260.343 185.381 260.714 178.173 260.714C170.965 260.714 169.693 259.919 169.693 254.195V251.969H166.301V254.937ZM203.726 247.888C203.726 242.164 203.832 239.62 209.874 239.62C215.916 239.62 216.022 242.164 216.022 247.888H203.726ZM219.414 251.28V247.199C219.414 239.832 218.089 236.546 209.98 236.546C201.818 236.546 200.016 239.302 200.016 250.485C200.016 261.456 201.076 264.424 209.98 264.424C218.089 264.424 219.414 262.357 219.414 256.951V255.944H216.022C216.022 261.244 214.856 261.35 209.397 261.35C204.733 261.35 203.726 259.654 203.726 253.771V251.28H219.414ZM230.326 264H233.718V245.185C233.718 241.475 235.467 239.567 238.859 239.62C242.728 239.62 243.311 240.998 243.258 245.98H246.332V243.807C246.332 238.401 244.371 236.546 240.078 236.546C236.686 236.546 235.096 237.659 233.824 240.256H233.718V236.97H230.326V264ZM260.383 264H265.153L272.732 236.97H269.234L262.821 260.608H262.715L256.302 236.97H252.804L260.383 264ZM282.095 264H285.487V236.97H282.095V264ZM282.095 230.133H285.487V225.628H282.095V230.133ZM315.649 245.98C315.649 238.825 314.112 236.546 306.798 236.546C298.636 236.546 296.834 239.302 296.834 250.485C296.834 261.456 297.894 264.424 306.798 264.424C312.84 264.424 316.126 262.94 316.126 255.944V254.195H312.734C312.734 260.025 311.674 261.35 306.798 261.35C301.392 261.35 300.544 260.555 300.544 250.485C300.544 240.415 301.392 239.62 306.798 239.62C311.303 239.62 312.257 241.051 312.257 245.98H315.649ZM329.394 247.888C329.394 242.164 329.5 239.62 335.542 239.62C341.584 239.62 341.69 242.164 341.69 247.888H329.394ZM345.082 251.28V247.199C345.082 239.832 343.757 236.546 335.648 236.546C327.486 236.546 325.684 239.302 325.684 250.485C325.684 261.456 326.744 264.424 335.648 264.424C343.757 264.424 345.082 262.357 345.082 256.951V255.944H341.69C341.69 261.244 340.524 261.35 335.065 261.35C330.401 261.35 329.394 259.654 329.394 253.771V251.28H345.082ZM388.553 248.842H398.517V252.658C398.517 260.661 396.821 260.714 389.454 260.714C380.762 260.714 379.649 259.548 379.649 251.068V238.56C379.649 230.08 380.762 228.914 389.454 228.914C397.245 228.914 398.517 229.709 398.517 235.592V236.97H402.227V233.101C402.227 225.84 396.98 225.204 389.454 225.204C379.384 225.204 375.939 227.112 375.939 238.348V251.28C375.939 262.516 379.384 264.424 389.454 264.424C397.722 264.424 402.227 264 402.227 253.718V245.132H388.553V248.842ZM412.762 264H416.154V248.524C416.154 242.906 418.062 239.938 422.991 239.938C426.701 239.938 428.344 241.263 428.344 245.291V264H431.736V246.987C431.736 241.687 433.909 239.938 438.255 239.938C441.7 239.938 443.926 241.104 443.926 246.51V264H447.318V244.549C447.318 239.196 444.721 236.546 439.262 236.546C435.446 236.546 433.22 237.659 431.153 240.945C429.775 237.341 427.019 236.546 423.415 236.546C419.599 236.546 417.956 238.083 416.26 240.998H416.154V236.97H412.762V264ZM474.868 250.485C474.868 259.813 473.702 261.032 468.402 261.032C462.731 261.032 461.936 259.018 461.936 248.895C461.936 242.27 463.526 239.938 468.402 239.938C473.702 239.938 474.868 241.157 474.868 250.485ZM458.544 264H461.936V260.608H462.042C463.314 263.311 465.169 264.424 468.985 264.424C476.511 264.424 478.578 261.085 478.578 250.485C478.578 239.885 476.511 236.546 469.515 236.546C466.441 236.546 463.897 237.182 462.042 240.362H461.936V225.628H458.544V264ZM489.467 264H493.177V246.298H511.674V264H515.384V225.628H511.621V242.27H493.177V225.628H489.467V264Z" fill="#B1B1B1"/>
<path fill-rule="evenodd" clip-rule="evenodd" d="M256.044 30.1131L274 38.8559V19.9898L255.537 11L255.16 11.7927L255.135 11.7403L0 133.916L0.00546776 133.927H39.2519L256.044 30.1131ZM508 133.927H469.254L311 56.8717V38.0055L508 133.927Z" fill="#B1B1B1"/>
</g>
<defs>
<clipPath id="clip0">
<rect width="519" height="264" fill="white"/>
</clipPath>
</defs>
</svg>
