<svg width="519" height="200" viewBox="0 0 519 200" fill="none" xmlns="http://www.w3.org/2000/svg">
<path d="M0.391113 200H51.9811C69.0751 200 75.0811 194.379 75.0811 180.596V163.656C75.0811 149.873 69.0751 144.252 51.9811 144.252H0.391113V200ZM17.4851 158.112H47.8231C55.1381 158.112 57.9871 160.191 57.9871 168.122V175.668C57.9871 183.599 55.1381 185.678 47.8231 185.678H17.4851V158.112Z" fill="#BD0000"/>
<path d="M100.823 200H162.808V186.602H117.917V177.67H159.497V166.12H117.917V157.188H161.807V144.252H100.823V200Z" fill="#BD0000"/>
<path d="M205.654 158.112H232.373C237.763 158.112 240.227 159.036 240.227 163.964V165.812C240.227 169.816 238.533 171.664 233.913 171.664H205.654V158.112ZM188.56 200H205.654V185.524H232.527C237.84 185.524 239.534 187.449 239.534 193.301V200H256.628V190.529C256.628 181.366 252.393 179.133 247.311 178.209V178.055C255.165 176.207 256.859 171.818 256.859 164.349V160.807C256.859 150.797 253.317 144.252 240.15 144.252H188.56V200Z" fill="#BD0000"/>
<path d="M283.818 200H339.335V185.678H300.912V0H283.818V200Z" fill="#BD0000"/>
<path d="M362.006 200H423.991V186.602H379.1V177.67H420.68V166.12H379.1V157.188H422.99V144.252H362.006V200Z" fill="#BD0000"/>
<path d="M466.838 158.112H493.557C498.947 158.112 501.411 159.036 501.411 163.964V165.812C501.411 169.816 499.717 171.664 495.097 171.664H466.838V158.112ZM449.744 200H466.838V185.524H493.711C499.024 185.524 500.718 187.449 500.718 193.301V200H517.812V190.529C517.812 181.366 513.577 179.133 508.495 178.209V178.055C516.349 176.207 518.043 171.818 518.043 164.349V160.807C518.043 150.797 514.501 144.252 501.334 144.252H449.744V200Z" fill="#BD0000"/>
<path fill-rule="evenodd" clip-rule="evenodd" d="M256.044 30.1131L274 38.8559V19.9898L255.537 11L255.16 11.7927L255.135 11.7403L0 133.916L0.00546776 133.927H39.2519L256.044 30.1131ZM508 133.927H469.254L311 56.8717V38.0055L508 133.927Z" fill="#37367D"/>
</svg>
