<svg width="520" height="255" viewBox="0 0 520 255" fill="none" xmlns="http://www.w3.org/2000/svg">
<g clip-path="url(#clip0)">
<path d="M2.39111 200H53.9811C71.0751 200 77.0811 194.379 77.0811 180.596V163.656C77.0811 149.873 71.0751 144.252 53.9811 144.252H2.39111V200ZM19.4851 158.112H49.8231C57.1381 158.112 59.9871 160.191 59.9871 168.122V175.668C59.9871 183.599 57.1381 185.678 49.8231 185.678H19.4851V158.112Z" fill="white"/>
<path d="M102.823 200H164.808V186.602H119.917V177.67H161.497V166.12H119.917V157.188H163.807V144.252H102.823V200Z" fill="white"/>
<path d="M207.654 158.112H234.373C239.763 158.112 242.227 159.036 242.227 163.964V165.812C242.227 169.816 240.533 171.664 235.913 171.664H207.654V158.112ZM190.56 200H207.654V185.524H234.527C239.84 185.524 241.534 187.449 241.534 193.301V200H258.628V190.529C258.628 181.366 254.393 179.133 249.311 178.209V178.055C257.165 176.207 258.859 171.818 258.859 164.349V160.807C258.859 150.797 255.317 144.252 242.15 144.252H190.56V200Z" fill="white"/>
<path d="M285.818 200H341.335V185.678H302.912V0H285.818V200Z" fill="white"/>
<path d="M364.006 200H425.991V186.602H381.1V177.67H422.68V166.12H381.1V157.188H424.99V144.252H364.006V200Z" fill="white"/>
<path d="M468.838 158.112H495.557C500.947 158.112 503.411 159.036 503.411 163.964V165.812C503.411 169.816 501.717 171.664 497.097 171.664H468.838V158.112ZM451.744 200H468.838V185.524H495.711C501.024 185.524 502.718 187.449 502.718 193.301V200H519.812V190.529C519.812 181.366 515.577 179.133 510.495 178.209V178.055C518.349 176.207 520.043 171.818 520.043 164.349V160.807C520.043 150.797 516.501 144.252 503.334 144.252H451.744V200Z" fill="white"/>
<path d="M2.53174 254H5.43674V240.139H19.9202V254H22.8252V223.954H19.8787V236.985H5.43674V223.954H2.53174V254Z" fill="#B1B1B1"/>
<path d="M44.1284 254H46.5354V238.52C46.5354 234.412 45.2074 232.503 39.3144 232.503C32.7159 232.503 32.0934 234.993 32.0934 237.566V238.686H34.7494C34.7494 235.989 34.8324 234.91 39.1899 234.91C43.5889 234.91 43.8794 235.989 43.8794 239.101V242.961H43.7964C42.8419 241.508 41.9704 241.052 37.9449 241.052C32.3009 241.052 31.3464 243.542 31.3464 247.692C31.3464 251.759 32.5499 254.332 37.9449 254.332C41.0574 254.332 42.5929 253.834 44.1284 252.174V254ZM34.0024 247.567C34.0024 244.33 35.5379 243.459 39.0654 243.459C42.5929 243.459 44.1284 244.33 44.1284 247.567C44.1284 250.804 42.5929 251.676 39.0654 251.676C35.5379 251.676 34.0024 250.804 34.0024 247.567Z" fill="#B1B1B1"/>
<path d="M69.8953 232.835H67.2393V246.198C67.2393 250.68 64.9983 251.925 61.7613 251.925C58.2753 251.925 57.7358 249.601 57.7358 247.152V232.835H55.0798V247.775C55.0798 251.883 56.4078 254.332 61.3048 254.332C64.3758 254.332 65.8283 253.543 67.1563 251.261H67.2393V254H69.8953V232.835Z" fill="#B1B1B1"/>
<path d="M78.3983 247.443C78.3983 253.751 80.6393 254.332 85.4948 254.332C92.3423 254.332 93.2968 252.547 93.2968 247.567C93.2968 242.919 92.3423 242.421 86.0758 242.048C81.5938 241.799 81.2203 241.55 81.2203 238.562C81.2203 235.283 81.8843 234.91 85.5778 234.91C89.5618 234.91 90.4333 235.117 90.4333 238.354H93.0893C93.0893 233.914 91.8858 232.503 85.7023 232.503C79.3943 232.503 78.5643 234.246 78.5643 238.686C78.5643 243.376 80.0168 244.164 85.3288 244.455C90.3503 244.745 90.6408 244.953 90.6408 247.733C90.6408 251.302 89.8523 251.925 85.5778 251.925C81.6353 251.925 80.9713 251.095 81.0543 247.443H78.3983Z" fill="#B1B1B1"/>
<path d="M101.177 244.206H110.307V241.799H101.177V244.206Z" fill="#B1B1B1"/>
<path d="M141.968 254H146.201L154.044 223.954H151.222L144.167 251.095H144.084L137.444 223.954H133.045L126.405 251.095H126.322L119.267 223.954H116.445L124.289 254H128.522L135.203 226.859H135.286L141.968 254Z" fill="#B1B1B1"/>
<path d="M162.601 243.417C162.601 235.532 163.265 234.91 167.498 234.91C171.731 234.91 172.395 235.532 172.395 243.417C172.395 251.302 171.731 251.925 167.498 251.925C163.265 251.925 162.601 251.302 162.601 243.417ZM159.696 243.417C159.696 252.174 160.609 254.332 167.498 254.332C174.387 254.332 175.3 252.174 175.3 243.417C175.3 234.993 174.47 232.503 167.498 232.503C160.526 232.503 159.696 234.993 159.696 243.417Z" fill="#B1B1B1"/>
<path d="M183.47 254H186.126V240.637C186.126 236.155 188.367 234.91 191.604 234.91C195.09 234.91 195.63 237.234 195.63 239.682V254H198.286V239.06C198.286 234.951 196.958 232.503 192.061 232.503C188.99 232.503 187.537 233.291 186.209 235.574H186.126V223.954H183.47V254Z" fill="#B1B1B1"/>
<path d="M206.83 254H209.486V240.637C209.486 236.155 211.727 234.91 214.964 234.91C218.45 234.91 218.99 237.234 218.99 239.682V254H221.646V239.06C221.646 234.951 220.318 232.503 215.421 232.503C212.35 232.503 210.897 233.291 209.569 235.574H209.486V232.835H206.83V254Z" fill="#B1B1B1"/>
<path d="M229.568 244.206H238.698V241.799H229.568V244.206Z" fill="#B1B1B1"/>
<path d="M246.247 246.903C246.247 252.962 248.695 254.332 255.584 254.332C262.349 254.332 264.839 252.962 264.839 245.866C264.839 238.562 263.22 237.732 255.792 237.234C250.231 236.86 249.484 236.113 249.484 231.839C249.484 227.398 249.94 226.527 255.626 226.527C260.606 226.527 261.975 227.481 261.975 231.424V232.088H264.631C264.465 225.116 262.93 223.622 255.626 223.622C248.82 223.622 246.579 224.535 246.579 231.839C246.579 237.566 247.782 239.35 252.887 239.765L255.958 240.014C261.934 240.512 261.934 241.633 261.934 245.451C261.934 251.136 261.187 251.427 255.543 251.427C249.899 251.427 248.903 250.804 248.903 246.322V244.579H246.247V246.903Z" fill="#B1B1B1"/>
<path d="M275.551 241.384C275.551 236.902 275.634 234.91 280.365 234.91C285.096 234.91 285.179 236.902 285.179 241.384H275.551ZM287.835 244.04V240.844C287.835 235.076 286.798 232.503 280.448 232.503C274.057 232.503 272.646 234.661 272.646 243.417C272.646 252.008 273.476 254.332 280.448 254.332C286.798 254.332 287.835 252.713 287.835 248.48V247.692H285.179C285.179 251.842 284.266 251.925 279.992 251.925C276.34 251.925 275.551 250.597 275.551 245.99V244.04H287.835Z" fill="#B1B1B1"/>
<path d="M296.38 254H299.036V239.267C299.036 236.362 300.405 234.868 303.061 234.91C306.091 234.91 306.547 235.989 306.506 239.89H308.913V238.188C308.913 233.955 307.377 232.503 304.016 232.503C301.36 232.503 300.115 233.374 299.119 235.408H299.036V232.835H296.38V254Z" fill="#B1B1B1"/>
<path d="M319.915 254H323.65L329.585 232.835H326.845L321.824 251.344H321.741L316.72 232.835H313.98L319.915 254Z" fill="#B1B1B1"/>
<path d="M336.915 254H339.571V232.835H336.915V254ZM336.915 227.481H339.571V223.954H336.915V227.481Z" fill="#B1B1B1"/>
<path d="M363.189 239.89C363.189 234.287 361.986 232.503 356.259 232.503C349.868 232.503 348.457 234.661 348.457 243.417C348.457 252.008 349.287 254.332 356.259 254.332C360.99 254.332 363.563 253.17 363.563 247.692V246.322H360.907C360.907 250.887 360.077 251.925 356.259 251.925C352.026 251.925 351.362 251.302 351.362 243.417C351.362 235.532 352.026 234.91 356.259 234.91C359.786 234.91 360.533 236.03 360.533 239.89H363.189Z" fill="#B1B1B1"/>
<path d="M373.952 241.384C373.952 236.902 374.035 234.91 378.766 234.91C383.497 234.91 383.58 236.902 383.58 241.384H373.952ZM386.236 244.04V240.844C386.236 235.076 385.198 232.503 378.849 232.503C372.458 232.503 371.047 234.661 371.047 243.417C371.047 252.008 371.877 254.332 378.849 254.332C385.198 254.332 386.236 252.713 386.236 248.48V247.692H383.58C383.58 251.842 382.667 251.925 378.392 251.925C374.74 251.925 373.952 250.597 373.952 245.99V244.04H386.236Z" fill="#B1B1B1"/>
<path d="M420.274 242.131H428.076V245.119C428.076 251.385 426.748 251.427 420.98 251.427C414.174 251.427 413.302 250.514 413.302 243.874V234.08C413.302 227.44 414.174 226.527 420.98 226.527C427.08 226.527 428.076 227.149 428.076 231.756V232.835H430.981V229.805C430.981 224.12 426.873 223.622 420.98 223.622C413.095 223.622 410.397 225.116 410.397 233.914V244.04C410.397 252.838 413.095 254.332 420.98 254.332C427.454 254.332 430.981 254 430.981 245.949V239.226H420.274V242.131Z" fill="#B1B1B1"/>
<path d="M439.23 254H441.886V241.882C441.886 237.483 443.38 235.159 447.24 235.159C450.145 235.159 451.431 236.196 451.431 239.35V254H454.087V240.678C454.087 236.528 455.789 235.159 459.192 235.159C461.889 235.159 463.632 236.072 463.632 240.305V254H466.288V238.769C466.288 234.578 464.255 232.503 459.98 232.503C456.992 232.503 455.249 233.374 453.631 235.947C452.552 233.125 450.394 232.503 447.572 232.503C444.584 232.503 443.297 233.706 441.969 235.989H441.886V232.835H439.23V254Z" fill="#B1B1B1"/>
<path d="M487.861 243.417C487.861 250.721 486.948 251.676 482.798 251.676C478.357 251.676 477.735 250.099 477.735 242.172C477.735 236.985 478.98 235.159 482.798 235.159C486.948 235.159 487.861 236.113 487.861 243.417ZM475.079 254H477.735V251.344H477.818C478.814 253.46 480.266 254.332 483.254 254.332C489.147 254.332 490.766 251.717 490.766 243.417C490.766 235.117 489.147 232.503 483.669 232.503C481.262 232.503 479.27 233.001 477.818 235.491H477.735V223.954H475.079V254Z" fill="#B1B1B1"/>
<path d="M499.292 254H502.197V240.139H516.68V254H519.585V223.954H516.639V236.985H502.197V223.954H499.292V254Z" fill="#B1B1B1"/>
<path fill-rule="evenodd" clip-rule="evenodd" d="M258.044 30.1132L276 38.856V19.9899L258.103 11.2758L258.096 11.2913L258.092 11.2824L2 133.916L2.00549 133.927H41.2518L258.044 30.1132ZM510 133.927H471.254L313 56.8718V38.0056L510 133.927Z" fill="#B1B1B1"/>
</g>
<defs>
<clipPath id="clip0">
<rect width="520" height="255" fill="white"/>
</clipPath>
</defs>
</svg>
