<svg width="611" height="344" viewBox="0 0 611 344" fill="none" xmlns="http://www.w3.org/2000/svg">
<rect width="611" height="344" fill="white"/>
<path d="M48.3911 236H99.9811C117.075 236 123.081 230.379 123.081 216.596V199.656C123.081 185.873 117.075 180.252 99.9811 180.252H48.3911V236ZM65.4851 194.112H95.8231C103.138 194.112 105.987 196.191 105.987 204.122V211.668C105.987 219.599 103.138 221.678 95.8231 221.678H65.4851V194.112Z" fill="#BD0000"/>
<path d="M148.823 236H210.808V222.602H165.917V213.67H207.497V202.12H165.917V193.188H209.807V180.252H148.823V236Z" fill="#BD0000"/>
<path d="M253.654 194.112H280.373C285.763 194.112 288.227 195.036 288.227 199.964V201.812C288.227 205.816 286.533 207.664 281.913 207.664H253.654V194.112ZM236.56 236H253.654V221.524H280.527C285.84 221.524 287.534 223.449 287.534 229.301V236H304.628V226.529C304.628 217.366 300.393 215.133 295.311 214.209V214.055C303.165 212.207 304.859 207.818 304.859 200.349V196.807C304.859 186.797 301.317 180.252 288.15 180.252H236.56V236Z" fill="#BD0000"/>
<path d="M331.818 236H387.335V221.678H348.912V36H331.818V236Z" fill="#BD0000"/>
<path d="M410.006 236H471.991V222.602H427.1V213.67H468.68V202.12H427.1V193.188H470.99V180.252H410.006V236Z" fill="#BD0000"/>
<path d="M514.838 194.112H541.557C546.947 194.112 549.411 195.036 549.411 199.964V201.812C549.411 205.816 547.717 207.664 543.097 207.664H514.838V194.112ZM497.744 236H514.838V221.524H541.711C547.024 221.524 548.718 223.449 548.718 229.301V236H565.812V226.529C565.812 217.366 561.577 215.133 556.495 214.209V214.055C564.349 212.207 566.043 207.818 566.043 200.349V196.807C566.043 186.797 562.501 180.252 549.334 180.252H497.744V236Z" fill="#BD0000"/>
<path d="M81.125 300H86.531L96.548 261.628H92.944L83.934 296.29H83.828L75.348 261.628H69.73L61.25 296.29H61.144L52.134 261.628H48.53L58.547 300H63.953L72.486 265.338H72.592L81.125 300ZM107.477 286.485C107.477 276.415 108.325 275.62 113.731 275.62C119.137 275.62 119.985 276.415 119.985 286.485C119.985 296.555 119.137 297.35 113.731 297.35C108.325 297.35 107.477 296.555 107.477 286.485ZM103.767 286.485C103.767 297.668 104.933 300.424 113.731 300.424C122.529 300.424 123.695 297.668 123.695 286.485C123.695 275.726 122.635 272.546 113.731 272.546C104.827 272.546 103.767 275.726 103.767 286.485ZM134.129 300H137.521V282.934C137.521 277.21 140.383 275.62 144.517 275.62C148.969 275.62 149.658 278.588 149.658 281.715V300H153.05V280.92C153.05 275.673 151.354 272.546 145.1 272.546C141.178 272.546 139.323 273.553 137.627 276.468H137.521V261.628H134.129V300ZM163.962 300H167.354V282.934C167.354 277.21 170.216 275.62 174.35 275.62C178.802 275.62 179.491 278.588 179.491 281.715V300H182.883V280.92C182.883 275.673 181.187 272.546 174.933 272.546C171.011 272.546 169.156 273.553 167.46 276.468H167.354V272.97H163.962V300ZM193 287.492H204.66V284.418H193V287.492ZM214.301 290.937C214.301 298.675 217.428 300.424 226.226 300.424C234.865 300.424 238.045 298.675 238.045 289.612C238.045 280.284 235.978 279.224 226.491 278.588C219.389 278.111 218.435 277.157 218.435 271.698C218.435 266.027 219.018 264.914 226.279 264.914C232.639 264.914 234.388 266.133 234.388 271.168V272.016H237.78C237.568 263.112 235.607 261.204 226.279 261.204C217.587 261.204 214.725 262.37 214.725 271.698C214.725 279.012 216.262 281.291 222.781 281.821L226.703 282.139C234.335 282.775 234.335 284.206 234.335 289.082C234.335 296.343 233.381 296.714 226.173 296.714C218.965 296.714 217.693 295.919 217.693 290.195V287.969H214.301V290.937ZM251.726 283.888C251.726 278.164 251.832 275.62 257.874 275.62C263.916 275.62 264.022 278.164 264.022 283.888H251.726ZM267.414 287.28V283.199C267.414 275.832 266.089 272.546 257.98 272.546C249.818 272.546 248.016 275.302 248.016 286.485C248.016 297.456 249.076 300.424 257.98 300.424C266.089 300.424 267.414 298.357 267.414 292.951V291.944H264.022C264.022 297.244 262.856 297.35 257.397 297.35C252.733 297.35 251.726 295.654 251.726 289.771V287.28H267.414ZM278.326 300H281.718V281.185C281.718 277.475 283.467 275.567 286.859 275.62C290.728 275.62 291.311 276.998 291.258 281.98H294.332V279.807C294.332 274.401 292.371 272.546 288.078 272.546C284.686 272.546 283.096 273.659 281.824 276.256H281.718V272.97H278.326V300ZM308.383 300H313.153L320.732 272.97H317.234L310.821 296.608H310.715L304.302 272.97H300.804L308.383 300ZM330.095 300H333.487V272.97H330.095V300ZM330.095 266.133H333.487V261.628H330.095V266.133ZM363.649 281.98C363.649 274.825 362.112 272.546 354.798 272.546C346.636 272.546 344.834 275.302 344.834 286.485C344.834 297.456 345.894 300.424 354.798 300.424C360.84 300.424 364.126 298.94 364.126 291.944V290.195H360.734C360.734 296.025 359.674 297.35 354.798 297.35C349.392 297.35 348.544 296.555 348.544 286.485C348.544 276.415 349.392 275.62 354.798 275.62C359.303 275.62 360.257 277.051 360.257 281.98H363.649ZM377.394 283.888C377.394 278.164 377.5 275.62 383.542 275.62C389.584 275.62 389.69 278.164 389.69 283.888H377.394ZM393.082 287.28V283.199C393.082 275.832 391.757 272.546 383.648 272.546C375.486 272.546 373.684 275.302 373.684 286.485C373.684 297.456 374.744 300.424 383.648 300.424C391.757 300.424 393.082 298.357 393.082 292.951V291.944H389.69C389.69 297.244 388.524 297.35 383.065 297.35C378.401 297.35 377.394 295.654 377.394 289.771V287.28H393.082ZM436.553 284.842H446.517V288.658C446.517 296.661 444.821 296.714 437.454 296.714C428.762 296.714 427.649 295.548 427.649 287.068V274.56C427.649 266.08 428.762 264.914 437.454 264.914C445.245 264.914 446.517 265.709 446.517 271.592V272.97H450.227V269.101C450.227 261.84 444.98 261.204 437.454 261.204C427.384 261.204 423.939 263.112 423.939 274.348V287.28C423.939 298.516 427.384 300.424 437.454 300.424C445.722 300.424 450.227 300 450.227 289.718V281.132H436.553V284.842ZM460.762 300H464.154V284.524C464.154 278.906 466.062 275.938 470.991 275.938C474.701 275.938 476.344 277.263 476.344 281.291V300H479.736V282.987C479.736 277.687 481.909 275.938 486.255 275.938C489.7 275.938 491.926 277.104 491.926 282.51V300H495.318V280.549C495.318 275.196 492.721 272.546 487.262 272.546C483.446 272.546 481.22 273.659 479.153 276.945C477.775 273.341 475.019 272.546 471.415 272.546C467.599 272.546 465.956 274.083 464.26 276.998H464.154V272.97H460.762V300ZM522.868 286.485C522.868 295.813 521.702 297.032 516.402 297.032C510.731 297.032 509.936 295.018 509.936 284.895C509.936 278.27 511.526 275.938 516.402 275.938C521.702 275.938 522.868 277.157 522.868 286.485ZM506.544 300H509.936V296.608H510.042C511.314 299.311 513.169 300.424 516.985 300.424C524.511 300.424 526.578 297.085 526.578 286.485C526.578 275.885 524.511 272.546 517.515 272.546C514.441 272.546 511.897 273.182 510.042 276.362H509.936V261.628H506.544V300ZM537.467 300H541.177V282.298H559.674V300H563.384V261.628H559.621V278.27H541.177V261.628H537.467V300Z" fill="#37367D"/>
<path fill-rule="evenodd" clip-rule="evenodd" d="M304.044 66.1131L322 74.8559V55.9898L303.537 47L303.16 47.7927L303.135 47.7403L48 169.916L48.0055 169.927H87.2519L304.044 66.1131ZM556 169.927H517.254L359 92.8717V74.0055L556 169.927Z" fill="#37367D"/>
</svg>
