<svg id="Logo" xmlns="http://www.w3.org/2000/svg" viewBox="0 0 535.24 118.82"><defs><style>.cls-1{fill:#e41b13;}</style></defs><title>Logo Deutsch</title><path class="cls-1" d="M30.23,26.12H44v12.6H30.23V72.67c0,6.37,1.59,8,8,8A29.06,29.06,0,0,0,44,80.1V94.81a72.23,72.23,0,0,1-11,.66c-11.54,0-21.62-2.65-21.62-16.31V38.72H0V26.12H11.4V5.57H30.23Z"/><path class="cls-1" d="M64.79,65c.53,11.93,6.37,17.37,16.84,17.37,7.56,0,13.66-4.64,14.85-8.88h16.58C107.75,89.64,96.48,96.54,81,96.54c-21.62,0-35-14.85-35-36.07,0-20.55,14.19-36.2,35-36.2,23.34,0,34.61,19.63,33.28,40.71ZM95.42,53c-1.72-9.55-5.83-14.59-15-14.59C68.5,38.46,65.06,47.74,64.79,53Z"/><path class="cls-1" d="M155.29,24.27c21.61,0,35.54,14.32,35.54,36.2s-13.92,36.07-35.54,36.07-35.41-14.32-35.41-36.07S133.81,24.27,155.29,24.27Zm0,58.08c12.86,0,16.71-11,16.71-21.88s-3.85-22-16.71-22-16.58,11-16.58,22S142.56,82.35,155.29,82.35Z"/><path class="cls-1" d="M218,102.77a12.87,12.87,0,0,0,4.11.53c3.85,0,7.29-.93,7.29-6.1V26.12h18.83v72c0,14.06-5.17,20.69-24.13,20.69a47.44,47.44,0,0,1-6.1-.53Zm30.23-87.25H229.39V0h18.83Z"/><path class="cls-1" d="M256,47.21c1.06-17.64,16.84-22.94,32.22-22.94,13.66,0,30.1,3,30.1,19.49V79.43c0,6.23.66,12.46,2.39,15.25h-19.1a28,28,0,0,1-1.33-6.63c-6,6.23-14.72,8.49-23.07,8.49-13,0-23.34-6.5-23.34-20.55,0-15.52,11.67-19.23,23.34-20.82s22.28-1.33,22.28-9c0-8.09-5.57-9.28-12.2-9.28-7.16,0-11.8,2.92-12.47,10.34Zm43.5,13.92c-3.18,2.79-9.81,2.92-15.65,4s-11.14,3.18-11.14,10.08,5.44,8.75,11.54,8.75c14.72,0,15.25-11.67,15.25-15.78Z"/><path class="cls-1" d="M326.92,0h18.83V50.79l23.74-24.66h22.28L365.9,51.32l28.78,43.36H371.87L353,64l-7.29,7v23.6H326.92Z"/><path class="cls-1" d="M425.06,24.27c21.62,0,35.54,14.32,35.54,36.2s-13.92,36.07-35.54,36.07-35.41-14.32-35.41-36.07S403.58,24.27,425.06,24.27Zm0,58.08c12.86,0,16.71-11,16.71-21.88s-3.85-22-16.71-22-16.58,11-16.58,22S412.33,82.35,425.06,82.35Z"/><path class="cls-1" d="M466.15,0H485V34.48h.26c4.64-7,13.13-10.21,21.62-10.21,13.66,0,28.38,11,28.38,36.07s-14.72,36.2-28.38,36.2c-10.08,0-18.43-3-22.54-10.61h-.26v8.75h-17.9Zm34.21,38.46c-11.14,0-16,10.48-16,22s4.91,21.88,16,21.88,16-10.48,16-21.88S511.5,38.46,500.36,38.46Z"/></svg>
