<svg width="255" height="255" viewBox="0 0 255 255" fill="none" xmlns="http://www.w3.org/2000/svg">
<g clip-path="url(#clip0)">
<rect width="255" height="255" fill="white"/>
<path d="M37.9458 204.62H162.696C204.031 204.62 218.554 191.028 218.554 157.699V116.736C218.554 83.4077 204.031 69.8156 162.696 69.8156H37.9458V204.62ZM79.2808 103.33H152.641C170.329 103.33 177.219 108.358 177.219 127.536V145.783C177.219 164.961 170.329 169.988 152.641 169.988H79.2808V103.33Z" fill="#BD0000"/>
<path d="M280.799 204.62H430.685V172.222H322.134V150.624H422.679V122.695H322.134V101.096H428.264V69.8156H280.799V204.62Z" fill="#BD0000"/>
<path d="M534.293 103.33H598.902C611.936 103.33 617.894 105.565 617.894 117.481V121.95C617.894 131.632 613.798 136.101 602.626 136.101H534.293V103.33ZM492.958 204.62H534.293V169.615H599.275C612.122 169.615 616.218 174.27 616.218 188.421V204.62H657.553V181.718C657.553 159.561 647.312 154.161 635.024 151.927V151.555C654.015 147.086 658.112 136.473 658.112 118.412V109.847C658.112 85.642 649.547 69.8156 617.708 69.8156H492.958V204.62Z" fill="#BD0000"/>
<path d="M723.3 204.62H857.545V169.988H764.635V-279H723.3V204.62Z" fill="#BD0000"/>
<path d="M912.366 204.62H1062.25V172.222H953.701V150.624H1054.25V122.695H953.701V101.096H1059.83V69.8156H912.366V204.62Z" fill="#BD0000"/>
<path d="M1165.86 103.33H1230.47C1243.5 103.33 1249.46 105.565 1249.46 117.481V121.95C1249.46 131.632 1245.36 136.101 1234.19 136.101H1165.86V103.33ZM1124.53 204.62H1165.86V169.615H1230.84C1243.69 169.615 1247.79 174.27 1247.79 188.421V204.62H1289.12V181.718C1289.12 159.561 1278.88 154.161 1266.59 151.927V151.555C1285.58 147.086 1289.68 136.473 1289.68 118.412V109.847C1289.68 85.642 1281.11 69.8156 1249.28 69.8156H1124.53V204.62Z" fill="#BD0000"/>
<path fill-rule="evenodd" clip-rule="evenodd" d="M656.141 -206.184L699.559 -185.043V-230.663L654.914 -252.401L654.002 -250.484L653.943 -250.611L37 44.8209L37.0133 44.8492H131.915L656.141 -206.184ZM1265.4 44.8492H1171.7L789.028 -141.479V-187.099L1265.4 44.8492Z" fill="#37367D"/>
</g>
<defs>
<clipPath id="clip0">
<rect width="255" height="255" fill="white"/>
</clipPath>
</defs>
</svg>
